<?xml version="1.0" standalone="no"?>
<!DOCTYPE svg PUBLIC "-//W3C//DTD SVG 20010904//EN"
 "http://www.w3.org/TR/2001/REC-SVG-20010904/DTD/svg10.dtd">
<svg version="1.0" xmlns="http://www.w3.org/2000/svg"
 width="512.000000pt" height="512.000000pt" viewBox="0 0 512.000000 512.000000"
 preserveAspectRatio="xMidYMid meet">

<g transform="translate(0.000000,512.000000) scale(0.100000,-0.100000)"
fill="#000000" stroke="none">
<path d="M2105 4375 c-60 -8 -153 -21 -205 -31 -91 -16 -97 -19 -141 -63 -25
-26 -64 -55 -87 -65 l-42 -19 0 -455 c0 -440 -1 -457 -21 -498 -27 -58 -72
-84 -140 -84 -64 0 -102 22 -136 77 l-23 38 0 453 c0 248 -3 452 -7 452 -5 0
-69 -30 -143 -66 -372 -181 -599 -410 -666 -674 -23 -93 -15 -231 20 -331 23
-68 26 -90 26 -216 0 -333 96 -600 244 -675 25 -13 73 -24 123 -29 163 -15
222 -52 345 -217 39 -51 89 -106 111 -120 37 -24 50 -27 132 -27 90 0 94 1
181 46 116 61 180 79 278 79 108 0 169 -30 301 -145 134 -117 201 -149 310
-148 131 1 195 33 370 185 95 83 156 108 259 108 92 0 154 -19 275 -82 91 -48
99 -50 154 -45 86 8 125 39 202 157 98 151 169 192 362 208 129 12 171 29 232
98 104 118 161 331 161 602 0 131 3 153 26 221 35 100 43 238 20 331 -67 264
-297 497 -668 675 -74 36 -138 65 -142 65 -3 0 -6 -201 -6 -447 0 -431 -1
-448 -21 -489 -27 -58 -72 -84 -140 -84 -64 0 -102 22 -136 77 l-23 38 0 461
0 461 -42 19 c-23 10 -62 39 -87 65 -44 44 -51 47 -136 63 -100 18 -333 46
-382 46 l-31 0 38 -67 c81 -141 105 -287 66 -400 -21 -64 -88 -141 -150 -174
l-45 -24 -3 -467 c-3 -456 -3 -467 -24 -495 -35 -48 -82 -73 -134 -73 -52 0
-99 25 -134 73 -21 28 -21 39 -24 495 l-3 467 -45 24 c-62 33 -129 110 -151
174 -38 112 -13 264 67 402 l39 65 -47 -1 c-26 -1 -96 -7 -157 -14z"/>
<path d="M513 1960 c-57 -172 -45 -337 38 -501 146 -291 567 -557 1089 -689
337 -85 512 -105 925 -105 285 0 352 4 493 23 536 73 989 246 1277 489 246
207 354 476 290 724 -20 78 -34 105 -35 69 -1 -82 -23 -222 -44 -281 -97 -278
-395 -511 -841 -658 -350 -115 -696 -165 -1145 -165 -445 0 -797 51 -1144 165
-426 140 -718 358 -827 619 -28 66 -43 137 -57 270 -8 74 -8 75 -19 40z"/>
</g>
</svg>
